<svg width="2946" height="812" viewBox="0 0 2946 812" fill="none" xmlns="http://www.w3.org/2000/svg">
<path d="M1099.28 434.014L1054.87 346.655H1062.09C1063.9 346.655 1065.58 347.136 1067.15 348.099C1068.71 349.062 1069.92 350.385 1070.76 352.07C1074.97 360.252 1078.64 367.472 1081.77 373.729C1084.9 379.866 1087.6 385.22 1089.89 389.793C1092.3 394.365 1094.28 398.216 1095.85 401.344C1097.41 404.353 1098.73 406.879 1099.82 408.925C1100.54 410.369 1101.26 411.873 1101.98 413.437C1102.83 415.002 1103.37 416.024 1103.61 416.506C1104.45 417.95 1104.81 419.514 1104.69 421.199C1104.69 422.763 1104.33 424.207 1103.61 425.53L1099.28 434.014ZM1199.27 346.655C1191.33 362.418 1184.29 376.256 1178.15 388.168C1172.13 400.081 1166.9 410.429 1162.45 419.213C1158 427.877 1154.21 435.217 1151.08 441.233C1148.07 447.129 1145.6 452.003 1143.68 455.853C1139.22 464.757 1136.76 469.631 1136.28 470.473C1135.55 472.158 1134.17 473 1132.13 473H1121.84C1123.88 468.909 1126.53 463.675 1129.78 457.297C1133.15 450.799 1136.76 443.76 1140.61 436.179C1144.46 428.599 1148.43 420.717 1152.52 412.535C1156.73 404.353 1160.76 396.471 1164.61 388.89C1168.46 381.189 1172.01 374.15 1175.26 367.773C1178.63 361.395 1181.34 356.161 1183.39 352.07C1184.23 350.385 1185.43 349.062 1187 348.099C1188.56 347.136 1190.3 346.655 1192.23 346.655H1199.27ZM1257.44 346.655C1259.12 346.655 1260.57 347.257 1261.77 348.46C1262.97 349.663 1263.57 351.107 1263.57 352.792V473H1257.44C1255.75 473 1254.31 472.398 1253.11 471.195C1252.02 469.992 1251.48 468.548 1251.48 466.863V346.655H1257.44ZM1408.12 414.881C1413.89 421.981 1418.77 427.997 1422.74 432.931C1426.71 437.744 1430.08 441.895 1432.85 445.385C1435.61 448.754 1437.9 451.642 1439.7 454.048C1441.51 456.335 1443.13 458.44 1444.58 460.366C1446.14 462.291 1447.71 464.216 1449.27 466.141C1450.83 468.067 1452.7 470.353 1454.87 473H1444.4C1442.83 473 1441.33 472.699 1439.89 472.098C1439.64 471.857 1439.4 471.676 1439.16 471.556C1439.04 471.436 1438.92 471.255 1438.8 471.015C1438.68 470.894 1438.62 470.894 1438.62 471.015C1438.74 471.135 1438.44 470.774 1437.72 469.932C1437 468.969 1435.67 467.345 1433.75 465.058C1431.82 462.652 1428.81 458.982 1424.72 454.048C1420.75 449.115 1415.46 442.557 1408.84 434.375C1402.22 426.192 1393.86 415.904 1383.75 403.51H1413.89C1417.26 403.51 1420.33 402.909 1423.1 401.705C1425.99 400.382 1428.45 398.697 1430.5 396.652C1432.55 394.606 1434.17 392.199 1435.37 389.432C1436.58 386.664 1437.18 383.776 1437.18 380.768C1437.18 377.76 1436.58 374.932 1435.37 372.285C1434.17 369.517 1432.55 367.111 1430.5 365.065C1428.45 362.899 1425.99 361.215 1423.1 360.012C1420.33 358.808 1417.26 358.207 1413.89 358.207C1413.77 358.207 1411.01 358.146 1405.59 358.026H1337.18C1334.78 358.026 1332.67 357.184 1330.87 355.499C1329.06 353.694 1328.16 351.528 1328.16 349.001V346.655H1412.99C1417.93 346.535 1422.5 347.377 1426.71 349.182C1431.04 350.867 1434.77 353.273 1437.9 356.402C1441.15 359.41 1443.74 363.02 1445.66 367.231C1447.59 371.443 1448.55 375.955 1448.55 380.768C1448.55 385.581 1447.59 390.094 1445.66 394.305C1443.74 398.517 1441.15 402.187 1437.9 405.315C1434.77 408.323 1431.04 410.73 1426.71 412.535C1422.5 414.22 1417.93 415.002 1412.99 414.881H1408.12ZM1603.9 346.655C1605.58 346.655 1606.97 347.257 1608.05 348.46C1609.25 349.663 1609.85 351.107 1609.85 352.792V358.026H1502.46C1500.78 358.026 1499.33 357.485 1498.13 356.402C1497.04 355.198 1496.5 353.754 1496.5 352.07V346.655H1603.9ZM1553.18 385.461C1554.86 385.461 1556.25 386.063 1557.33 387.266C1558.53 388.349 1559.13 389.733 1559.13 391.417V473H1553.18C1551.49 473 1550.05 472.459 1548.85 471.376C1547.76 470.172 1547.22 468.728 1547.22 467.044V385.461H1553.18ZM1669.23 346.655C1670.44 346.655 1671.04 347.317 1671.04 348.64V411.813C1671.04 421.8 1673.56 430.945 1678.62 439.248C1683.79 447.43 1690.77 453.747 1699.55 458.2C1702.44 459.523 1703.89 461.87 1703.89 465.239V472.098C1697.39 470.052 1691.37 467.104 1685.84 463.253C1680.42 459.283 1675.79 454.65 1671.94 449.355C1668.09 444.061 1665.08 438.225 1662.91 431.848C1660.75 425.47 1659.67 418.852 1659.67 411.993V346.655H1669.23ZM1746.12 458.2C1754.91 453.747 1761.82 447.43 1766.88 439.248C1772.05 430.945 1774.64 421.86 1774.64 411.993V348.64C1774.64 347.317 1775.24 346.655 1776.44 346.655H1786.01V411.091C1786.13 418.431 1785.11 425.35 1782.94 431.848C1780.78 438.345 1777.71 444.241 1773.74 449.536C1769.77 454.83 1765.07 459.403 1759.66 463.253C1754.24 467.104 1748.29 470.052 1741.79 472.098V465.239C1741.79 461.87 1743.23 459.523 1746.12 458.2ZM1977.03 473C1974.74 473 1973.12 471.977 1972.16 469.932L1915.12 357.665C1915 357.785 1913.98 359.53 1912.05 362.899C1910.25 366.269 1907.78 370.661 1904.65 376.075C1901.64 381.37 1898.21 387.446 1894.36 394.305C1890.51 401.044 1886.6 407.962 1882.63 415.062C1878.66 422.161 1874.75 429.14 1870.9 435.999C1867.05 442.737 1863.62 448.754 1860.61 454.048C1857.6 459.343 1855.14 463.675 1853.21 467.044C1851.41 470.293 1850.5 471.917 1850.5 471.917C1850.14 472.639 1849.54 473 1848.7 473H1837.15C1837.27 472.88 1838.29 471.075 1840.22 467.585C1842.14 464.096 1844.67 459.523 1847.8 453.868C1850.93 448.212 1854.48 441.835 1858.45 434.736C1862.42 427.516 1866.45 420.236 1870.54 412.896C1874.75 405.436 1878.84 398.156 1882.81 391.056C1886.78 383.837 1890.27 377.459 1893.28 371.924C1896.41 366.269 1898.94 361.756 1900.86 358.387C1902.79 354.898 1903.75 353.153 1903.75 353.153C1904.71 351.107 1906.1 349.543 1907.9 348.46C1909.83 347.257 1911.93 346.655 1914.22 346.655H1922.7C1924.15 349.423 1926.31 353.694 1929.2 359.47C1932.21 365.246 1935.58 371.924 1939.31 379.505C1943.16 386.965 1947.25 394.967 1951.58 403.51C1956.03 412.054 1960.36 420.597 1964.58 429.14C1968.91 437.563 1973 445.625 1976.85 453.326C1980.82 460.907 1984.25 467.465 1987.14 473H1977.03ZM2044.66 346.655C2046.35 346.655 2047.79 347.257 2048.99 348.46C2050.2 349.663 2050.8 351.107 2050.8 352.792V409.828C2050.8 417.047 2052.12 423.846 2054.77 430.223C2057.42 436.48 2061.03 441.955 2065.6 446.648C2070.17 451.341 2075.53 455.011 2081.66 457.658C2087.92 460.305 2094.66 461.629 2101.88 461.629H2128.05C2129.74 461.629 2131.12 462.231 2132.2 463.434C2133.41 464.517 2134.01 465.901 2134.01 467.585V473C2124.5 473 2117.4 473 2112.71 473C2108.14 473 2104.89 473 2102.96 473C2101.04 473 2099.95 473 2099.71 473C2099.47 472.88 2098.93 472.82 2098.09 472.82C2089.79 472.338 2082.02 470.353 2074.81 466.863C2067.59 463.374 2061.27 458.801 2055.85 453.146C2050.56 447.49 2046.35 440.932 2043.22 433.472C2040.21 426.012 2038.71 418.13 2038.71 409.828V346.655H2044.66ZM2360.74 473H2303.34C2294.92 472.639 2287.04 470.714 2279.7 467.224C2272.36 463.735 2265.98 459.162 2260.56 453.507C2255.15 447.731 2250.88 441.113 2247.75 433.653C2244.74 426.192 2243.24 418.251 2243.24 409.828C2243.24 401.405 2244.74 393.463 2247.75 386.002C2250.88 378.542 2255.15 371.984 2260.56 366.329C2265.98 360.673 2272.36 356.101 2279.7 352.611C2287.04 349.122 2294.92 347.197 2303.34 346.836C2303.7 346.836 2303.94 346.836 2304.06 346.836C2304.18 346.715 2304.66 346.655 2305.51 346.655C2306.35 346.655 2307.73 346.655 2309.66 346.655C2311.7 346.655 2314.77 346.655 2318.86 346.655C2323.08 346.655 2328.55 346.655 2335.29 346.655C2342.03 346.655 2350.51 346.655 2360.74 346.655V352.07C2360.74 353.754 2360.14 355.198 2358.93 356.402C2357.85 357.485 2356.47 358.026 2354.78 358.026H2306.41C2299.31 358.026 2292.57 359.41 2286.19 362.177C2279.94 364.825 2274.46 368.495 2269.77 373.188C2265.08 377.88 2261.35 383.415 2258.58 389.793C2255.93 396.05 2254.61 402.728 2254.61 409.828C2254.61 416.927 2255.93 423.665 2258.58 430.043C2261.35 436.3 2265.08 441.775 2269.77 446.468C2274.46 451.16 2279.94 454.891 2286.19 457.658C2292.57 460.305 2299.31 461.629 2306.41 461.629H2354.78C2356.47 461.629 2357.85 462.231 2358.93 463.434C2360.14 464.517 2360.74 465.901 2360.74 467.585V473ZM2543.35 473C2541.07 473 2539.44 471.977 2538.48 469.932L2481.45 357.665C2481.32 357.785 2480.3 359.53 2478.38 362.899C2476.57 366.269 2474.11 370.661 2470.98 376.075C2467.97 381.37 2464.54 387.446 2460.69 394.305C2456.84 401.044 2452.93 407.962 2448.96 415.062C2444.99 422.161 2441.08 429.14 2437.22 435.999C2433.37 442.737 2429.94 448.754 2426.94 454.048C2423.93 459.343 2421.46 463.675 2419.54 467.044C2417.73 470.293 2416.83 471.917 2416.83 471.917C2416.47 472.639 2415.87 473 2415.02 473H2403.47C2403.59 472.88 2404.62 471.075 2406.54 467.585C2408.47 464.096 2410.99 459.523 2414.12 453.868C2417.25 448.212 2420.8 441.835 2424.77 434.736C2428.74 427.516 2432.77 420.236 2436.86 412.896C2441.08 405.436 2445.17 398.156 2449.14 391.056C2453.11 383.837 2456.6 377.459 2459.61 371.924C2462.73 366.269 2465.26 361.756 2467.19 358.387C2469.11 354.898 2470.07 353.153 2470.07 353.153C2471.04 351.107 2472.42 349.543 2474.23 348.46C2476.15 347.257 2478.26 346.655 2480.54 346.655H2489.03C2490.47 349.423 2492.64 353.694 2495.52 359.47C2498.53 365.246 2501.9 371.924 2505.63 379.505C2509.48 386.965 2513.57 394.967 2517.9 403.51C2522.36 412.054 2526.69 420.597 2530.9 429.14C2535.23 437.563 2539.32 445.625 2543.17 453.326C2547.14 460.907 2550.57 467.465 2553.46 473H2543.35ZM2626.14 346.655C2627.83 346.655 2629.27 347.257 2630.48 348.46C2631.68 349.663 2632.28 351.107 2632.28 352.792V473H2626.14C2624.46 473 2623.02 472.398 2621.81 471.195C2620.73 469.992 2620.19 468.548 2620.19 466.863V346.655H2626.14ZM2720.59 346.655C2721.91 346.655 2723.11 346.956 2724.2 347.558C2725.28 348.039 2726.12 348.761 2726.72 349.723L2792.6 464.878L2858.3 349.904C2858.9 348.941 2859.75 348.159 2860.83 347.558C2861.91 346.956 2863.11 346.655 2864.44 346.655H2871.12L2870.94 472.278H2867.15C2865.1 472.278 2863.3 471.737 2861.73 470.654C2860.17 469.45 2859.38 468.006 2859.38 466.322V370.661L2802.17 468.488C2801.45 469.932 2800.3 471.075 2798.74 471.917C2797.17 472.639 2795.43 473 2793.5 473H2791.52C2787.43 473 2784.54 471.496 2782.86 468.488L2725.64 370.661V466.322C2725.64 468.006 2724.86 469.45 2723.29 470.654C2721.73 471.737 2719.92 472.278 2717.88 472.278H2714.09L2713.91 346.655H2720.59Z" fill="#008cb9"/>
<path d="M367.134 811C367.018 811 367.018 811 367.134 811L284.267 794.589C284.15 794.589 284.15 794.472 284.033 794.472C284.033 794.355 284.033 794.354 284.033 794.237L288.235 787.204L213.538 764.698L121.099 696.24L45.5852 594.492C45.4685 594.375 45.4685 594.258 45.5852 594.258C45.5852 594.14 45.7016 594.14 45.8183 594.14L64.6095 594.726L9.40369 495.674V495.557L67.5274 296.984L1.46674 368.255C1.35003 368.372 1.23354 368.372 1.11683 368.255C1.00011 368.255 1 368.137 1 368.02L22.8259 268.382C22.8259 268.382 22.8259 268.382 22.8259 268.265L118.065 113.533L215.405 44.8408L326.868 4.39941L457.938 1L557.146 23.7409L625.424 62.8929L702.806 128.302L767.932 221.845L789.758 277.877C789.758 277.994 789.758 278.111 789.641 278.229C789.525 278.346 789.408 278.229 789.291 278.229L767.816 254.667L767.582 298.625L801.313 314.098C801.43 314.098 801.43 314.216 801.43 314.333L811 385.603C811 385.603 811 385.603 811 385.721L785.44 494.033L799.912 501.887C800.029 502.004 800.029 502.122 800.029 502.239L759.062 605.863L686.816 700.577L600.797 762.822C600.797 762.822 600.797 762.822 600.68 762.822L506.608 800.333C506.492 800.333 506.375 800.333 506.258 800.216L497.621 784.039L462.257 791.307L456.421 809.711C456.421 809.828 456.304 809.945 456.187 809.945L367.134 811ZM461.556 791.541L369.702 810.531L455.837 809.476L461.556 791.541ZM289.052 786.97L366.784 810.414L356.63 743.363L311.111 749.928L289.052 786.97ZM467.158 727.421L368.068 810.297L461.79 790.955L476.496 744.887L467.158 727.421ZM357.097 743.246L367.251 810.297L466.342 727.421L357.097 743.246ZM284.617 794.237L361.999 809.476L288.702 787.439L284.617 794.237ZM497.972 784.039L506.491 799.864L597.763 763.525L497.972 784.039ZM476.846 745.473L462.374 790.838L497.271 783.687L476.846 745.473ZM214.822 764.58L288.585 786.852L310.528 750.045L277.847 754.851L214.822 764.58ZM476.963 744.77L497.738 783.57L599.396 762.587L481.398 731.055L476.963 744.77ZM196.614 724.491L213.771 764.229L276.68 754.382L196.614 724.491ZM122.85 696.943L213.071 763.76L196.03 724.256L122.85 696.943ZM481.515 730.586L599.98 762.236L574.42 714.175L483.265 725.311L481.515 730.586ZM613.052 709.486L600.797 762.001L685.415 700.695L613.052 709.486ZM574.886 714.175L600.33 762.001L612.468 709.603L574.886 714.175ZM257.072 647.828L277.964 754.148L310.878 749.342L348.109 687.097L257.072 647.828ZM196.38 723.904L277.381 754.148L256.488 647.71L141.992 598.126L196.38 723.904ZM348.226 687.917L311.461 749.459L356.513 742.894L348.226 687.917ZM467.742 727.421L476.729 744.184L480.931 730.938L467.742 727.421ZM348.693 687.449L357.097 742.66L466.108 726.835L348.693 687.449ZM468.559 727.069L481.048 730.469L482.682 725.428L468.559 727.069ZM517.929 614.654L467.626 726.601L482.915 724.725L517.929 614.654ZM349.043 687.097L466.575 726.483L421.523 654.627L349.043 687.097ZM421.99 654.392L467.042 726.366L518.863 610.903L421.99 654.392ZM519.564 611.137L483.382 724.725L574.186 713.706L519.564 611.137ZM121.567 695.889L195.797 723.553L141.641 598.36L121.567 695.889ZM520.03 611.137L574.653 713.706L612.702 709.135L622.623 666.349L520.03 611.137ZM623.089 666.583L613.169 709.017L685.532 700.226L623.089 666.583ZM623.206 665.997L686.115 699.874L681.68 607.386L636.511 608.324L623.206 665.997ZM682.264 607.386L686.582 699.054L720.663 606.566L682.264 607.386ZM721.246 606.566L687.282 698.819L758.245 605.863L721.246 606.566ZM65.4267 595.313L120.866 694.834L107.794 596.719L65.4267 595.313ZM108.261 596.719L121.333 694.599L141.291 597.891L108.261 596.719ZM46.2856 594.609L119.115 692.724L64.8432 595.195L46.2856 594.609ZM256.956 647.242L348.226 686.745L371.569 575.033L245.284 587.576L256.956 647.242ZM371.92 575.502L348.693 686.745L421.29 654.275L371.92 575.502ZM520.497 610.786L622.856 665.763L636.278 608.324L520.497 610.786ZM372.386 575.151L421.756 653.923L518.63 610.551L372.386 575.151ZM142.458 597.657L256.372 647.007L244.701 587.576L142.458 597.657ZM673.86 446.324L520.147 610.2L636.278 607.738L673.86 446.324ZM372.27 574.682L519.096 610.2L451.985 406.352L372.27 574.682ZM452.453 406L519.447 609.731L573.836 427.803L452.453 406ZM574.303 427.803L520.03 609.496L673.743 445.621L574.303 427.803ZM674.094 447.379L636.745 607.855L681.68 606.918L674.094 447.379ZM674.561 446.676L682.264 606.918L720.897 606.097L736.419 563.897L674.561 446.676ZM736.769 564.483L721.48 606.097L758.362 605.276L736.769 564.483ZM737.003 563.897L758.478 604.69L765.832 485.593L737.003 563.897ZM766.532 484.304L759.179 602.698L784.739 494.268L766.532 484.304ZM785.323 494.502L759.879 602.229L799.445 502.122L785.323 494.502ZM108.144 596.133L140.708 597.188L104.643 569.289L108.144 596.133ZM216.689 444.214L141.992 597.188L244.701 586.99L216.689 444.214ZM104.526 568.586L141.174 596.954L136.74 463.79L92.0375 475.043L104.526 568.586ZM137.323 463.673L141.758 596.485L216.339 443.745L137.323 463.673ZM65.0763 594.726L107.677 596.133L104.059 568.821L10.454 496.378L65.0763 594.726ZM217.156 444.097L245.167 586.99L371.219 574.564L217.156 444.097ZM217.389 443.628L371.803 574.447L451.636 406L217.389 443.628ZM10.1041 495.674L103.943 568.234L91.5707 475.278L10.1041 495.674ZM674.911 445.972L736.769 563.194L765.948 483.952L674.911 445.972ZM67.8779 297.101L9.98726 495.088L91.5707 474.574L67.8779 297.101ZM766.648 483.718L784.973 493.682L809.95 388.065L766.648 483.718ZM674.911 445.504L765.948 483.483L766.415 405.297L674.911 445.504ZM766.999 405.062L766.532 482.663L810.183 386.072L766.999 405.062ZM68.3446 296.632L92.0375 474.574L136.856 463.321L133.471 361.221L68.3446 296.632ZM133.938 361.69L137.323 463.204L216.339 443.394L133.938 361.69ZM574.42 427.334L673.743 445.152L603.131 331.447L574.42 427.334ZM740.854 286.903L674.794 445.035L766.415 404.711L766.999 298.86L740.854 286.903ZM631.61 236.732L674.327 444.566L740.388 286.551L631.61 236.732ZM603.365 330.744L673.86 444.097L631.259 237.318L603.365 330.744ZM380.206 295.929L217.506 443.042L451.519 405.414L380.206 295.929ZM133.938 360.987L216.572 442.925L228.594 281.394L131.02 275.298L133.938 360.987ZM229.177 281.394L217.039 442.808L379.973 295.46L360.948 266.272L229.177 281.394ZM452.569 405.531L573.952 427.334L602.781 330.861L576.52 288.544L452.569 405.531ZM516.412 191.719L452.569 404.828L576.17 288.075L516.412 191.719ZM420.706 259.356L452.102 404.711L515.829 191.836L420.706 259.356ZM767.582 299.094L766.999 404.476L810.533 385.369L800.962 314.333L767.582 299.094ZM380.673 295.577L451.519 404.359L420.239 259.708L380.673 295.577ZM23.1758 268.616L1.58357 367.083L67.6442 295.695L74.2972 271.664L23.1758 268.616ZM68.3446 295.929L133.471 360.518L130.67 275.415L81.65 272.368L68.3446 295.929ZM576.87 288.075L603.015 330.158L630.793 237.201L576.87 288.075ZM741.088 286.434L767.115 298.391L767.349 254.081L758.595 244.586L741.088 286.434ZM361.532 266.155L380.323 295.109L419.656 259.59L361.532 266.155ZM74.8807 271.899L68.8114 294.054L81.0664 272.25L74.8807 271.899ZM516.879 191.602L576.52 287.606L630.793 236.381L516.879 191.602ZM632.193 236.498L740.621 286.2L758.245 244.117L740.854 225.127L632.193 236.498ZM131.02 274.829L228.127 280.807L128.219 190.078L131.02 274.829ZM301.891 175.543L229.411 280.807L360.598 265.803L301.891 175.543ZM128.57 189.726L228.594 280.573L223.108 181.873L128.57 189.726ZM223.575 181.873L229.06 280.456L301.307 175.543L223.575 181.873ZM767.816 253.847L788.824 276.822L768.049 223.369L767.816 253.847ZM81.8836 271.781L130.553 274.829L127.752 190.43L81.8836 271.781ZM74.997 271.313L81.3001 271.664L127.169 190.313L89.5863 218.563L74.997 271.313ZM23.7594 268.148L74.5303 271.313L88.8865 219.149L23.7594 268.148ZM117.598 115.291L23.993 267.327L89.2364 218.328L117.598 115.291ZM302.824 176.129L361.182 265.803L419.656 259.122L302.824 176.129ZM392.461 182.107L420.589 258.77L515.595 191.25L392.461 182.107ZM302.824 175.425L419.889 258.535L391.877 182.107L302.824 175.425ZM758.829 244L767.349 253.26L767.466 223.252L758.829 244ZM741.438 225.01L758.362 243.531L767.232 222.197L741.438 225.01ZM682.03 160.656L631.843 236.029L740.504 224.658L682.03 160.656ZM516.762 191.016L631.026 235.912L611.768 95.3632L516.762 191.016ZM612.235 95.4805L631.376 235.677L681.563 160.304L652.385 128.42L612.235 95.4805ZM682.264 160.187L740.971 224.541L766.999 221.845L685.415 155.263L682.264 160.187ZM685.765 154.794L766.415 220.556L703.039 128.771L685.765 154.794ZM118.181 114.939L89.7032 217.86L127.635 189.375L118.181 114.939ZM392.228 181.638L515.829 190.899L443.815 47.068L368.068 115.525L392.228 181.638ZM444.283 46.9508L516.179 190.43L549.092 56.3285L444.283 46.9508ZM549.676 56.3285L516.762 190.313L611.535 94.7771L584.457 59.3763L549.676 56.3285ZM218.323 96.5355L128.686 189.14L223.108 181.287L218.323 96.5355ZM118.649 113.884L128.219 188.671L180.157 102.983L118.649 113.884ZM180.857 102.865L129.386 187.616L217.856 96.301L180.857 102.865ZM302.474 174.957L391.644 181.638L367.601 115.994L302.474 174.957ZM218.79 96.5355L223.575 181.287L301.307 174.839L218.79 96.5355ZM218.907 95.9493L301.657 174.605L320.565 46.9508L248.902 70.7467L218.907 95.9493ZM321.149 46.7164L302.241 174.488L367.484 115.408L340.056 40.5036L321.149 46.7164ZM655.186 130.53L681.913 159.835L685.182 155.029L655.186 130.53ZM652.852 127.951L685.415 154.56L702.689 128.537L628.341 101.224L652.852 127.951ZM627.641 100.404L701.872 127.716L625.774 63.3618L615.503 87.1577L627.641 100.404ZM613.169 95.5977L650.051 125.724L627.291 100.755L613.169 95.5977ZM340.523 40.3864L367.835 115.056L443.349 46.7164L384.875 25.6165L340.523 40.3864ZM214.822 45.8958L119.932 112.946L187.86 90.4399L214.822 45.8958ZM187.394 91.026L121.8 112.712L180.508 102.279L187.394 91.026ZM188.094 90.7916L181.091 102.279L218.206 95.7149L217.389 81.0622L188.094 90.7916ZM612.235 94.6599L626.708 99.9349L615.386 87.5094L612.235 94.6599ZM217.972 80.945L218.79 95.3632L247.618 71.0984L217.972 80.945ZM585.157 59.4935L611.885 94.3083L615.036 87.1577L590.176 59.9624L585.157 59.4935ZM215.405 45.7786L188.444 90.2055L217.389 80.5933L215.405 45.7786ZM590.876 60.0796L615.153 86.6889L625.307 63.1273L590.876 60.0796ZM215.872 45.0752L217.856 80.3589L248.669 70.1606L325.817 5.21996L215.872 45.0752ZM326.751 5.10275L249.953 69.8089L320.681 46.3647L326.751 5.10275ZM590.409 59.4935L624.607 62.5412L558.663 24.7959L590.409 59.4935ZM584.69 59.0246L589.593 59.4935L561.231 28.4298L584.69 59.0246ZM549.793 55.8596L583.99 58.9074L557.496 24.3271L549.793 55.8596ZM445.683 46.4819L549.326 55.7424L557.146 24.0926L445.683 46.4819ZM385.692 25.382L443.699 46.3647L457.821 1.58611L385.692 25.382ZM458.405 1.35165L444.283 46.2475L556.212 23.7409L458.405 1.35165ZM327.218 5.57163L321.149 46.2475L339.823 40.0347L327.218 5.57163ZM327.568 4.98552L340.407 39.9175L384.175 25.382L327.568 4.98552ZM328.502 4.75108L384.875 25.1476L456.421 1.46888L328.502 4.75108Z" fill="#008cb9" stroke="#008cb9" stroke-width="2.0"/>
<path d="M163.904 235.697H150V404.699H163.904V235.697Z" fill="#008cb9"/>
<path d="M381.57 102L150 235.697L157.364 246.612L388.934 112.916L381.57 102Z" fill="#008cb9"/>
<path d="M429.922 102L661.492 235.697L654.128 246.612L422.558 112.916L429.922 102Z" fill="#008cb9"/>
<path d="M403.259 706.301L150 404.479L160.653 396.74L413.912 698.562L403.259 706.301Z" fill="#008cb9"/>
<path d="M408.45 706.301L661.709 404.479L651.056 396.74L397.797 698.562L408.45 706.301Z" fill="#008cb9"/>
<path d="M405.84 710L401.34 704H410.34L405.84 710Z" fill="#008cb9"/>
<path d="M661.442 235.697H647.312V404.699H661.442V235.697Z" fill="#008cb9"/>
<path d="M391.103 330.738L381.722 391.306H429.633L420.084 331.512C430.471 326.865 437.674 316.951 437.674 305.333C437.674 289.223 423.603 276.211 406.348 276.211C388.926 276.211 374.854 289.223 374.854 305.333C374.854 316.177 381.387 325.781 391.103 330.738Z" fill="#008cb9"/>
<path d="M413.416 523.969H399.236V692.971H413.416V523.969Z" fill="#008cb9"/>
<path d="M513.651 457.514V471.61L413.138 523.968H399.234L298.889 471.61V457.514L406.102 513.28L513.651 457.514Z" fill="#008cb9"/>
<path d="M306.715 279.57H292.811V391.877H306.715V279.57Z" fill="#008cb9"/>
<path d="M300.014 291.188L292.811 279.57L406.391 215.439L413.594 226.438L300.014 291.188Z" fill="#008cb9"/>
<path d="M406.223 457.401L413.594 445.783L300.014 381.652L292.811 392.651L406.223 457.401Z" fill="#008cb9"/>
<path d="M512.768 291.188L519.971 279.57L406.391 215.439L399.188 226.438L512.768 291.188Z" fill="#008cb9"/>
<path d="M406.558 457.401L399.188 445.783L512.768 381.652L519.971 392.651L406.558 457.401Z" fill="#008cb9"/>
</svg>
